<?xml version="1.0" encoding="utf-8"?>
<!-- Generator: Adobe Illustrator 16.0.4, SVG Export Plug-In . SVG Version: 6.00 Build 0)  -->
<!DOCTYPE svg PUBLIC "-//W3C//DTD SVG 1.1//EN" "http://www.w3.org/Graphics/SVG/1.1/DTD/svg11.dtd">
<svg version="1.1" id="Layer_1" xmlns="http://www.w3.org/2000/svg" xmlns:xlink="http://www.w3.org/1999/xlink" x="0px" y="0px"
	 width="171px" height="59px" viewBox="0 0 171 59" enable-background="new 0 0 171 59" xml:space="preserve">
<g>
	<path d="M118.722,52.516v-0.026v2.004c0.001,0.267-0.001,0.54,0.012,0.799v1.592h1.873v-0.234v-2.672v-7.354l-10.08-0.114v2.187
		h7.885c-1.137,3.665-4.461,6.114-8.311,6.114c-1.151,0-2.267-0.22-3.322-0.658V38.047c1.056-0.438,2.171-0.658,3.322-0.658
		c2.947,0,5.674,1.476,7.292,3.946c0.039,0.057,0.101,0.159,0.131,0.206c0.014,0.022,0.022,0.036,0.022,0.036l0.037,0.047
		l2.031-0.69l-0.008-4.804h0.071h-2.099v1.521c-0.04,0.409-0.154,0.486-0.329,0.379c-1.971-1.751-4.508-2.714-7.151-2.714
		c-5.946,0-10.784,4.837-10.784,10.782s4.838,10.784,10.784,10.784c3.216,0,6.229-1.413,8.28-3.875 M104.705,52.936
		c-2.111-1.667-3.317-4.147-3.317-6.836c0-2.686,1.205-5.166,3.317-6.836V52.936z"/>
	<path d="M158.605,35.316c-5.945,0-10.782,4.838-10.782,10.783s4.837,10.782,10.782,10.782c5.946,0,10.783-4.837,10.783-10.782
		S164.552,35.316,158.605,35.316 M153.212,52.936c-2.109-1.669-3.317-4.149-3.317-6.836c0-2.686,1.207-5.166,3.317-6.834V52.936z
		 M158.605,54.811c-1.149,0-2.268-0.22-3.321-0.658V38.047c1.055-0.436,2.172-0.66,3.321-0.66c4.805,0,8.711,3.909,8.711,8.713
		C167.316,50.901,163.409,54.811,158.605,54.811"/>
	<path d="M95.807,55.015h-1.956v1.871h2.959v-0.002h0.153v0.002h2.959v-1.871h-1.601c-0.165-0.037-0.297-0.096-0.354-0.212
		l-0.103-0.23L90.234,36.31l-0.263-0.635h-0.34h-6.453h-3.177v1.035c0,0.675,0.609,0.732,1.099,0.777
		c0.484,0.044,0.837,0.089,0.854,0.411l-7.042,16.847c0,0-0.121,0.275-0.371,0.271h-1.558v0.831v1.038v0.002h1.633h1.326h8.144
		v-1.871h-1.679l2.086-5.006h9.218l2.1,5.006h-0.005V55.015z M80.159,55.015h-3.108l7.214-17.269h3.105L80.159,55.015z
		 M85.359,47.937l3.743-8.96l3.743,8.96H85.359z"/>
	<path d="M132.833,37.746h4.959c0.19,0.006,4.678,0.179,4.61,5.016l0.002,0.062c0.001,0.019,0.062,1.802-1.108,3.052
		c-0.789,0.842-1.987,1.284-3.559,1.318h-3.172l6.817,8.915c0.371,0.484,0.958,0.776,1.569,0.776h1.482h2.906v-1.038v-0.835h-1.849
		h-1.058h-0.821c-0.384,0-0.753-0.381-0.984-0.688l-3.919-5.123c1.728-0.198,3.113-0.846,4.118-1.931
		c1.648-1.777,1.661-4.069,1.646-4.508c0.079-6.853-6.586-7.087-6.656-7.087h-5.46"/>
	<path d="M134.788,35.675h-11.143v1.016c0,0.674,0.609,0.729,1.099,0.776c0.493,0.045,0.847,0.09,0.855,0.426l-0.012,16.717
		c-0.001,0.234-0.188,0.381-0.416,0.383h-1.539v1.894h0.007h11.145V54.99h-1.54c-0.025,0-0.05-0.008-0.074-0.013
		c-0.08-0.022-0.149-0.047-0.2-0.081c-0.084-0.065-0.141-0.161-0.141-0.283v-0.832l0.004-16.035 M130.674,55.015h-3.046V37.748
		h3.046V55.015z"/>
	<path d="M30.927,37.782h1.537v-2.107h-4.867h-0.012h-0.003l-8.315,16.97l-7.776-16.97H1.513v1.035c0,0.673,0.609,0.732,1.099,0.777
		c0.494,0.044,0.837,0.089,0.845,0.424v16.721c-0.001,0.231-0.188,0.377-0.417,0.381H1.501v1.871h0.006h11.086h0.058v-1.873h-1.538
		c-0.027,0-0.05-0.009-0.076-0.015c-0.079-0.019-0.147-0.045-0.199-0.079c-0.084-0.065-0.14-0.163-0.142-0.283V39.012l7.859,17.16
		l0.34,0.009c0.01,0,0.019,0,0.028,0c0.817,0,1.457-1.038,1.806-1.777l7.703-15.648l0.002,15.877
		c-0.001,0.231-0.188,0.377-0.418,0.381h-1.537v1.871h5.985v-1.871h-1.538c-0.231-0.004-0.418-0.151-0.418-0.386l-0.001-0.817
		l0.004-0.002l-0.002-15.642C30.509,37.934,30.696,37.786,30.927,37.782 M5.578,37.746h3.046v17.267H5.578V37.746z"/>
	<path d="M45.973,37.754h1.539v-2.079H36.368v1.016c0,0.674,0.609,0.729,1.099,0.776c0.494,0.045,0.847,0.09,0.856,0.426
		l-0.011,16.717c-0.001,0.234-0.188,0.381-0.417,0.383h-1.539v1.894h0.007h11.143V54.99h-1.538c-0.027,0-0.05-0.008-0.076-0.013
		c-0.08-0.022-0.147-0.047-0.199-0.081c-0.085-0.065-0.14-0.161-0.143-0.283v-0.832l0.006-15.645
		C45.557,37.902,45.744,37.756,45.973,37.754 M43.397,55.015h-3.046V37.748h3.046V55.015z"/>
	<path d="M69.249,51.719v3.273h-8.583c-0.027,0-0.05-0.01-0.077-0.015c-0.079-0.021-0.147-0.047-0.2-0.079
		c-0.083-0.065-0.139-0.163-0.141-0.283l0.006-16.477c0.001-0.236,0.188-0.381,0.417-0.383h1.539v-2.079H51.064v1.014
		c0,0.674,0.609,0.731,1.099,0.776c0.492,0.045,0.847,0.092,0.855,0.426l-0.011,16.719c-0.001,0.234-0.188,0.379-0.417,0.381h-1.539
		v1.894h0.007h20.35v-0.549v-1.345v-3.273H69.249z M58.093,55.015h-3.046V37.748h3.046V55.015z"/>
	<path d="M87.548,4.608c0.162,0.089,0.445,0.295,0.819,0.712c0.652,0.742-0.288,5.23-2.438,9.689l-0.048,0.107l-0.425,1.043
		l-0.495-1.151c-2.15-4.459-3.091-8.947-2.438-9.689c0.291-0.327,0.516-0.519,0.66-0.628c0.596,0.606,1.338,0.936,2.117,0.936
		C86.255,5.628,87.057,5.129,87.548,4.608 M87.44,2.646c-0.804,0-1.227,0.59-1.227,0.59s-0.388,0.485-0.915,0.485
		c-0.263,0-0.562-0.122-0.862-0.485c0,0-0.345-0.59-1.08-0.59c-0.537,0-1.284,0.314-2.256,1.403
		c-2.305,2.579,2.141,11.789,2.141,11.789l1.413,3.297H86.3l1.348-3.297c0,0,4.448-9.21,2.141-11.789
		C88.816,2.96,88.028,2.646,87.44,2.646"/>
	<polygon points="89.835,26.169 88.255,26.169 87.58,25.497 87.58,24.42 85.888,25.904 85.001,25.904 83.309,24.42 83.309,25.497 
		82.637,26.169 81.054,26.169 81.054,24.824 81.964,24.824 81.964,22.935 83.081,22.428 85.444,24.503 87.81,22.428 88.925,22.935 
		88.925,24.824 89.835,24.824 	"/>
	<path d="M78.459,3.009V1.101h-8.829l0.016,0.028h-0.008V2.21c0,0.664,0.565,0.751,1.058,0.798c0.029,0.003,0.06,0.008,0.088,0.01
		c0.011,0.001,0.019,0.003,0.029,0.004c0.494,2.853,2.248,10.963,6.621,15.048c-7.839-2.155-8.519-7.188-8.546-7.435l-0.95-0.864
		H65.68h-0.782v0.561v0.546c0,0.653,0.543,0.752,1.03,0.801h1.086h0.147c0.618,2.282,3.377,8.288,15.353,9.167l0.121-1.942
		c-3.668-5.836-4.153-13.188-4.2-15.896L78.459,3.009L78.459,3.009z M79.679,17.478c-4.421-3.013-6.34-11.318-6.924-14.47h3.767
		C76.552,5.526,76.929,11.729,79.679,17.478"/>
	<path d="M92.454,3.009c-0.047,2.709-0.531,10.061-4.199,15.896l0.121,1.941c11.974-0.878,14.733-6.885,15.353-9.166h0.147h1.084
		c0.49-0.05,1.031-0.148,1.031-0.802v-0.547l0,0V9.772h-0.78v0.001h-2.26l-0.95,0.864c-0.026,0.247-0.707,5.28-8.546,7.435
		c4.372-4.085,6.129-12.195,6.621-15.049c0.011-0.001,0.02-0.002,0.03-0.003c0.027-0.002,0.059-0.007,0.088-0.01
		c0.492-0.048,1.057-0.135,1.057-0.799V1.129h-0.007l0.015-0.028H92.43v1.908H92.454z M94.367,3.009h3.768
		c-0.585,3.15-2.503,11.457-6.926,14.47C93.959,11.729,94.337,5.526,94.367,3.009"/>
	<path d="M86.44,20.065L86.44,20.065h-1.993h-0.782v0.56h0.001v0.547c0,0.653,0.542,0.751,1.03,0.8h0.41h0.675h0.411
		c0.487-0.049,1.027-0.147,1.027-0.8v-0.547h0.002v-0.56H86.44z"/>
</g>
</svg>
